<svg width="23" height="22" viewBox="0 0 23 22" fill="none" xmlns="http://www.w3.org/2000/svg">
<g clip-path="url(#clip0)">
<path d="M16.2736 0H6.6532C3.38289 0 0.731712 2.71746 0.731712 6.06953V15.9305C0.731712 19.2825 3.38289 22 6.6532 22H16.2736C19.544 22 22.1951 19.2825 22.1951 15.9305V6.06953C22.1951 2.71746 19.544 0 16.2736 0ZM20.2901 15.9305C20.2901 18.2086 18.4803 20.0473 16.2736 20.0473H6.6532C4.43066 20.0473 2.63675 18.1923 2.63675 15.9305V6.06953C2.63675 3.80769 4.44653 1.95266 6.6532 1.95266H16.2736C18.4962 1.95266 20.2901 3.80769 20.2901 6.06953V15.9305Z" fill="black"/>
<path d="M11.4634 5.33716C8.41535 5.33716 5.92293 7.87562 5.92293 10.9999C5.92293 14.1241 8.39948 16.6789 11.4634 16.6789C14.5115 16.6789 17.0039 14.1404 17.0039 10.9999C17.0039 7.87562 14.5115 5.33716 11.4634 5.33716ZM11.4634 14.7262C9.46312 14.7262 7.82797 13.0664 7.82797 11.0162C7.84384 8.94958 9.46312 7.28982 11.4634 7.28982C13.4637 7.28982 15.0989 8.94958 15.0989 10.9999C15.0989 13.0502 13.4637 14.7262 11.4634 14.7262Z" fill="black"/>
<path d="M17.2262 3.67749C16.861 3.67749 16.4959 3.82394 16.2419 4.10057C15.9879 4.36092 15.8291 4.73518 15.8291 5.10944C15.8291 5.4837 15.972 5.85796 16.2419 6.11832C16.4959 6.37867 16.861 6.5414 17.2262 6.5414C17.5913 6.5414 17.9564 6.39495 18.2104 6.11832C18.4644 5.85796 18.6232 5.4837 18.6232 5.10944C18.6232 4.73518 18.4803 4.36092 18.2104 4.10057C17.9564 3.82394 17.6072 3.67749 17.2262 3.67749Z" fill="black"/>
</g>
<defs>
<clipPath id="clip0">
<rect width="21.4634" height="22" fill="white" transform="translate(0.731712)"/>
</clipPath>
</defs>
</svg>
